# xmcd
#
# Track frame offsets: 
#        150
#        17010
#        28562
#        45327
#        57675
#        70582
#        87265
#        98492
#        108740
#        122245
#        136787
#        154990
#        168767
#        180027
#
# Disc length: 2623 seconds
#
# Revision: 6
# Processed by: cddbd v1.5.2PL0 Copyright (c) Steve Scherf et al.
# Submitted via: ExactAudioCopy v1.0b4
#
DISCID=a70a3d0e
DTITLE=Various Artist - Great Ladies Of Country Music
DYEAR=1991
DGENRE=Country
TTITLE0=Tanya Tucker - Love Me Like You Used To
TTITLE1=Crystal Gayle - Don't It Make My Brown Eyes Blue
TTITLE2=Juice Newton - Hurt
TTITLE3=Reba McEntire - I'm Not That Lonely Yet
TTITLE4=Barbara Mandrell - Till You're Gone
TTITLE5=Sylvia - Snapshot
TTITLE6=Connie Smith - Just One Time
TTITLE7=Skeeter Davis - I'm A Lover (Not A Fighter)
TTITLE8=Dottie West - Paper Mansions
TTITLE9=Dolly Parton - You're The Only One
TTITLE10=K.T. Oslin - Do Ya
TTITLE11=Emmylou Harris - Sweet Dreams
TTITLE12=Loretta Lynn - Love Is The Foundation
TTITLE13=Patsy Cline - Faded Love
EXTD=\n YEAR: 1991
EXTT0=
EXTT1=
EXTT2=
EXTT3=
EXTT4=
EXTT5=
EXTT6=
EXTT7=
EXTT8=
EXTT9=
EXTT10=
EXTT11=
EXTT12=
EXTT13=
PLAYORDER=
